<svg width="52" height="52" viewBox="0 0 52 52" fill="none" xmlns="http://www.w3.org/2000/svg">
  <path d="M12.24 10.4002C15.3697 7.63194 19.2633 5.87459 23.4096 5.3588C23.5708 6.4768 23.7736 7.7222 24.0336 9.0196C24.5016 11.3596 25.1516 13.9076 26.0512 16.2398C26.7688 18.1092 27.671 19.9032 28.8124 21.3488L25.9992 24.162L12.24 10.4002ZM10.3992 12.2436C7.62988 15.3729 5.87159 19.2665 5.35523 23.4132C6.47323 23.5744 7.71603 23.7772 9.01343 24.0372C11.3534 24.5052 13.9014 25.1552 16.2336 26.0548C18.103 26.7724 19.8996 27.6746 21.3426 28.816L24.161 26.0002L10.3992 12.241V12.2436ZM19.4888 30.6724C18.3708 29.8404 16.9356 29.1098 15.3028 28.4806C13.1526 27.6538 10.7606 27.0402 8.50383 26.5878C7.40734 26.3683 6.30545 26.1767 5.19923 26.0132C5.19488 31.0767 7.04464 35.9665 10.3992 39.7594L19.4914 30.6698L19.4888 30.6724ZM12.2348 41.6002L21.327 32.5106C22.159 33.6286 22.887 35.0638 23.5162 36.6966C24.343 38.8442 24.9566 41.2388 25.409 43.493C25.643 44.6578 25.8302 45.781 25.981 46.8028C20.9184 46.8065 16.0296 44.9568 12.2374 41.6028L12.2348 41.6002ZM23.1808 30.6542L25.9992 27.841L39.7584 41.6002C36.629 44.3693 32.7354 46.1275 28.5888 46.6442C28.425 45.5262 28.2196 44.2808 27.9622 42.9834C27.4942 40.6434 26.8442 38.0954 25.9472 35.7632C25.227 33.8964 24.3274 32.0998 23.1834 30.6568L23.1808 30.6542ZM41.5992 39.762C44.3686 36.6327 46.1269 32.7391 46.6432 28.5924C45.5252 28.4312 44.2798 28.2284 42.9824 27.9684C40.6424 27.5004 38.0944 26.8504 35.7622 25.9534C33.8954 25.2332 32.0988 24.3336 30.6532 23.1896L27.8374 26.0002L41.5992 39.7594V39.762ZM32.507 21.3358C33.625 22.1678 35.0628 22.8958 36.693 23.525C38.8432 24.3518 41.2378 24.9654 43.492 25.4178C44.6568 25.6518 45.78 25.839 46.8018 25.9898C46.8062 20.9263 44.9564 16.0365 41.6018 12.2436L32.507 21.3358ZM39.7584 10.4002C35.9656 7.04562 31.0757 5.19585 26.0122 5.2002C26.163 6.222 26.3502 7.3452 26.5842 8.51C27.0366 10.7668 27.6502 13.1588 28.477 15.3064C29.1062 16.9392 29.8342 18.3744 30.6662 19.4924L39.7584 10.4028V10.4002Z" fill="white" />
</svg>
  