<svg width="52" height="52" viewBox="0 0 52 52" fill="none" xmlns="http://www.w3.org/2000/svg">
  <path d="M33.9293 31.837L29.4139 27.404L29.1344 27.1505C28.2587 26.4145 27.152 26.01 26.0081 26.0076C24.8642 26.0052 23.7559 26.4052 22.8771 27.1375L22.5824 27.404L9.0776 40.6727C8.86442 40.8816 8.59432 41.023 8.30113 41.0792C8.00794 41.1353 7.70471 41.1037 7.42942 40.9882C7.15414 40.8728 6.91903 40.6787 6.75357 40.4302C6.58811 40.1818 6.49965 39.89 6.49926 39.5915V13.5417C6.49926 11.6741 7.24115 9.88303 8.56172 8.56246C9.88229 7.24189 11.6734 6.5 13.5409 6.5H38.4576C40.3252 6.5 42.1162 7.24189 43.4368 8.56246C44.7574 9.88303 45.4993 11.6741 45.4993 13.5417V23.8593C44.4642 23.7682 43.4217 23.9053 42.4453 24.2609C41.469 24.6166 40.5826 25.1821 39.8486 25.9177L33.9293 31.837ZM29.2493 17.8793C29.2493 19.1734 29.7633 20.4145 30.6784 21.3295C31.5934 22.2446 32.8345 22.7587 34.1286 22.7587C35.4227 22.7587 36.6638 22.2446 37.5788 21.3295C38.4939 20.4145 39.0079 19.1734 39.0079 17.8793C39.0079 16.585 38.4937 15.3436 37.5785 14.4284C36.6632 13.5131 35.4219 12.9989 34.1275 12.9989C32.8331 12.9989 31.5918 13.5131 30.6765 14.4284C29.7613 15.3436 29.2471 16.585 29.2471 17.8793H29.2493ZM34.1286 16.25C34.5607 16.25 34.9752 16.4217 35.2807 16.7272C35.5863 17.0328 35.7579 17.4472 35.7579 17.8793C35.7579 18.3115 35.5863 18.7259 35.2807 19.0314C34.9752 19.337 34.5607 19.5087 34.1286 19.5087C33.6965 19.5087 33.282 19.337 32.9765 19.0314C32.6709 18.7259 32.4993 18.3115 32.4993 17.8793C32.4993 17.4472 32.6709 17.0328 32.9765 16.7272C33.282 16.4217 33.6965 16.25 34.1286 16.25ZM24.8596 29.7223L25.0416 29.5685C25.3158 29.3689 25.6457 29.2601 25.9849 29.2573C26.3241 29.2546 26.6557 29.3581 26.9331 29.5533L27.1368 29.7223L31.6326 34.1358L27.0609 38.7075C26.114 39.6543 25.4203 40.8241 25.0438 42.1092C24.2963 40.9478 23.1588 40.1267 21.9844 39.6543C20.4873 39.052 18.9814 39.3077 17.7898 39.7302L17.5471 39.8168C16.5071 40.1808 15.6751 38.9328 16.3988 38.103L16.8538 37.5808L24.8596 29.7223ZM41.3804 27.4495L28.5928 40.2393C27.8474 40.9847 27.3187 41.9186 27.0631 42.9412L26.1358 46.6505C25.3666 47.0188 24.5974 47.0882 23.6809 46.878C23.4079 46.813 23.2909 46.4988 23.4058 46.2432C24.3374 44.1588 22.9941 42.3952 21.1741 41.665C19.1049 40.8308 16.3511 42.7808 14.0414 44.4123C12.7588 45.3223 11.6148 46.1305 10.8001 46.3103C9.6626 46.5638 8.28243 46.0438 7.26626 45.487C6.81343 45.2422 6.2111 45.643 6.4256 46.111C6.94993 47.2572 8.00943 48.5658 10.1306 48.8302C12.2539 49.0923 13.9569 48.0783 15.6556 47.0643C16.9188 46.3103 18.1798 45.5563 19.6119 45.3332C19.7983 45.305 19.9239 45.5238 19.8394 45.6928C19.3151 46.7415 19.0681 48.6612 20.3118 49.6318C22.1491 51.0662 27.3253 50.2645 28.6058 49.8225C28.714 49.8112 28.8212 49.7917 28.9264 49.764L32.8914 48.7738C33.915 48.518 34.8498 47.9885 35.5954 47.242L48.3853 34.4543C49.2901 33.5206 49.7915 32.2684 49.7812 30.9682C49.7708 29.668 49.2496 28.424 48.3301 27.5047C47.4105 26.5854 46.1663 26.0646 44.8661 26.0547C43.5659 26.0448 42.3139 26.5465 41.3804 27.4517V27.4495Z" fill="white" />
</svg>
  