<svg width="52" height="52" viewBox="0 0 52 52" fill="none" xmlns="http://www.w3.org/2000/svg">
  <path opacity="0.82" d="M45.4798 11.3569L41.7207 15.1849L37.265 19.7253L34.0052 23.0449L33.9819 23.0656L17.6104 39.7373H6.77148L15.1895 31.1679L18.2548 28.0464L23.1663 23.0449L25.7439 20.42L30.8818 15.1849L34.6409 11.3569H45.4798Z" fill="white" />
  <path opacity="0.37" d="M34 7L25.9623 15.194H14.3919C14.0245 15.1349 13.6504 15.1349 13.283 15.194C12.3591 15.328 11.5128 15.7946 10.8976 16.5093C10.2824 17.2239 9.93898 18.1393 9.92951 19.0897C9.92003 20.04 10.2452 20.9623 10.846 21.6896C11.4468 22.4168 12.2836 22.9008 13.2046 23.0539C13.6233 23.1288 14.0516 23.1288 14.4702 23.0539H18.2438L13.3324 28.0554L10.6502 30.7868C8.15845 30.0687 5.96507 28.5417 4.40367 26.4378C2.84228 24.334 1.99828 21.7684 2 19.1313C2 15.917 3.2539 12.8344 5.48583 10.5615C7.71776 8.28869 10.7449 7.01182 13.9013 7.01182L34 7Z" fill="white" />
  <path d="M18 44.0001L26.0406 35.815H37.611C37.9784 35.8741 38.3525 35.8741 38.7199 35.815C39.6438 35.6806 40.4898 35.2136 41.1047 34.4987C41.7196 33.7838 42.0627 32.8683 42.0719 31.918C42.081 30.9677 41.7555 30.0454 41.1545 29.3184C40.5534 28.5914 39.7165 28.1078 38.7954 27.955C38.3777 27.8801 37.9504 27.8801 37.5327 27.955H33.7591L38.6705 22.9535L41.3556 20.2222C44.1185 21.0213 46.5045 22.811 48.0733 25.2612C49.642 27.7113 50.2877 30.6564 49.8913 33.5533C49.4948 36.4503 48.083 39.1035 45.9162 41.0234C43.7494 42.9434 40.9738 44.0006 38.1016 44.0001H18Z" fill="white" />
</svg>
  