<svg width="52" height="52" viewBox="0 0 52 52" fill="none" xmlns="http://www.w3.org/2000/svg">
  <path d="M26.0006 4.3335C27.5476 4.3335 29.0751 4.496 30.5636 4.8145C30.8492 4.87565 31.1131 5.01265 31.3274 5.21108C31.5417 5.40951 31.6986 5.66203 31.7815 5.94209C31.8645 6.22214 31.8704 6.51936 31.7987 6.8025C31.7269 7.08563 31.5802 7.34419 31.374 7.551C30.6925 8.2352 30.2063 9.08908 29.9656 10.0243C29.7249 10.9595 29.7385 11.942 30.0049 12.8702C30.2714 13.7983 30.7811 14.6384 31.4812 15.3036C32.1813 15.9687 33.0464 16.4346 33.987 16.6532C34.3742 16.7425 34.7152 16.9707 34.9456 17.2945C35.1759 17.6183 35.2797 18.0152 35.2372 18.4103C35.1217 19.5507 35.371 20.6984 35.9492 21.6881C36.5273 22.6779 37.4046 23.4587 38.4547 23.9182C39.5048 24.3778 40.6736 24.4923 41.7929 24.2455C42.9123 23.9986 43.9245 23.403 44.6838 22.5443C44.8915 22.3091 45.1629 22.1391 45.4652 22.0548C45.7674 21.9705 46.0876 21.9755 46.3871 22.0693C46.6865 22.163 46.9524 22.3414 47.1527 22.5829C47.353 22.8245 47.479 23.1189 47.5156 23.4305C47.6175 24.2755 47.6673 25.1357 47.6673 26.0002C47.6673 37.9667 37.9671 47.6668 26.0006 47.6668C14.0342 47.6668 4.33398 37.9667 4.33398 26.0002C4.33398 14.0337 14.0342 4.3335 26.0006 4.3335ZM32.5006 34.6668C31.926 34.6668 31.3749 34.8951 30.9686 35.3014C30.5623 35.7078 30.334 36.2589 30.334 36.8335C30.334 37.4081 30.5623 37.9592 30.9686 38.3656C31.3749 38.7719 31.926 39.0002 32.5006 39.0002C33.0753 39.0002 33.6264 38.7719 34.0327 38.3656C34.439 37.9592 34.6673 37.4081 34.6673 36.8335C34.6673 36.2589 34.439 35.7078 34.0327 35.3014C33.6264 34.8951 33.0753 34.6668 32.5006 34.6668ZM17.334 32.5002C16.7593 32.5002 16.2082 32.7284 15.8019 33.1348C15.3956 33.5411 15.1673 34.0922 15.1673 34.6668C15.1673 35.2415 15.3956 35.7926 15.8019 36.1989C16.2082 36.6052 16.7593 36.8335 17.334 36.8335C17.9086 36.8335 18.4597 36.6052 18.866 36.1989C19.2724 35.7926 19.5007 35.2415 19.5007 34.6668C19.5007 34.0922 19.2724 33.5411 18.866 33.1348C18.4597 32.7284 17.9086 32.5002 17.334 32.5002ZM26.0006 23.8335C25.426 23.8335 24.8749 24.0618 24.4686 24.4681C24.0623 24.8744 23.834 25.4255 23.834 26.0002C23.834 26.5748 24.0623 27.1259 24.4686 27.5322C24.8749 27.9386 25.426 28.1668 26.0006 28.1668C26.5753 28.1668 27.1264 27.9386 27.5327 27.5322C27.939 27.1259 28.1673 26.5748 28.1673 26.0002C28.1673 25.4255 27.939 24.8744 27.5327 24.4681C27.1264 24.0618 26.5753 23.8335 26.0006 23.8335ZM15.1673 17.3335C14.5927 17.3335 14.0416 17.5618 13.6353 17.9681C13.2289 18.3744 13.0007 18.9255 13.0007 19.5002C13.0007 20.0748 13.2289 20.6259 13.6353 21.0322C14.0416 21.4386 14.5927 21.6668 15.1673 21.6668C15.742 21.6668 16.2931 21.4386 16.6994 21.0322C17.1057 20.6259 17.334 20.0748 17.334 19.5002C17.334 18.9255 17.1057 18.3744 16.6994 17.9681C16.2931 17.5618 15.742 17.3335 15.1673 17.3335Z" fill="white" />
</svg>
  