<svg width="52" height="52" viewBox="0 0 52 52" fill="none" xmlns="http://www.w3.org/2000/svg">
  <path d="M41.567 7.84156C41.5059 7.47494 41.3669 7.12568 41.1594 6.81733C40.9519 6.50898 40.6807 6.2487 40.364 6.05404C40.0474 5.85939 39.6927 5.73488 39.3239 5.68891C38.9551 5.64294 38.5807 5.67658 38.226 5.78756L20.026 11.4738C19.4968 11.639 19.0342 11.969 18.7059 12.4157C18.3775 12.8624 18.2005 13.4024 18.2008 13.9568V35.1C17.0294 34.2214 15.5957 33.7641 14.1319 33.8022C12.6681 33.8402 11.2601 34.3714 10.1359 35.3096C9.01175 36.2478 8.23728 37.5381 7.938 38.9714C7.63873 40.4048 7.83218 41.8972 8.48701 43.2069C9.14185 44.5165 10.2197 45.5667 11.5459 46.1873C12.8722 46.8079 14.3691 46.9625 15.7942 46.6261C17.2193 46.2897 18.489 45.4819 19.3977 44.3338C20.3064 43.1856 20.8008 41.7642 20.8008 40.3V21.7568L39.0008 16.068V29.9C37.8294 29.0214 36.3957 28.5641 34.9319 28.6022C33.4681 28.6402 32.0601 29.1714 30.9359 30.1096C29.8117 31.0478 29.0373 32.3381 28.738 33.7714C28.4387 35.2048 28.6322 36.6972 29.287 38.0069C29.9418 39.3165 31.0197 40.3667 32.3459 40.9873C33.6722 41.6079 35.1691 41.7625 36.5942 41.4261C38.0193 41.0897 39.289 40.2819 40.1977 39.1338C41.1064 37.9856 41.6008 36.5642 41.6008 35.1V8.26796C41.6008 8.12236 41.5878 7.98196 41.567 7.84156Z" fill="white" />
</svg>
  