<svg width="211" height="53" viewBox="0 0 211 53" fill="none" xmlns="http://www.w3.org/2000/svg">
  <path fill-rule="evenodd" clip-rule="evenodd" d="M0 5.81592C0 3.05449 2.23858 0.815918 5 0.815918H206C208.761 0.815918 211 3.05449 211 5.81592V47.8159C211 50.5773 208.761 52.8159 206 52.8159H5C2.23857 52.8159 0 50.5773 0 47.8159V5.81592ZM54.5696 32.0079C53.0123 32.0079 51.7056 31.4959 50.6496 30.4719C49.6043 29.4373 49.0816 28.1093 49.0816 26.4879C49.0816 24.8666 49.6043 23.5439 50.6496 22.5199C51.7056 21.4853 53.0123 20.9679 54.5696 20.9679C56.2763 20.9679 57.6256 21.6719 58.6176 23.0799L57.4976 23.7039C57.1883 23.2453 56.7723 22.8719 56.2496 22.5839C55.727 22.2959 55.167 22.1519 54.5696 22.1519C53.3963 22.1519 52.415 22.5626 51.6256 23.3839C50.847 24.1946 50.4576 25.2293 50.4576 26.4879C50.4576 27.7466 50.847 28.7866 51.6256 29.6079C52.415 30.4186 53.3963 30.8239 54.5696 30.8239C55.167 30.8239 55.727 30.6853 56.2496 30.4079C56.7723 30.1199 57.1883 29.7413 57.4976 29.2719L58.6336 29.8959C57.599 31.3039 56.2443 32.0079 54.5696 32.0079ZM67.0781 31.8159H65.5421L62.7581 28.3439L61.4781 29.6079V31.8159H60.2781V24.0879H61.4781V28.1999L65.5421 24.0879H67.0621L63.6381 27.5919L67.0781 31.8159ZM74.594 30.8399C73.9007 31.6186 72.978 32.0079 71.826 32.0079C70.674 32.0079 69.746 31.6186 69.042 30.8399C68.3487 30.0613 68.002 29.0959 68.002 27.9439C68.002 26.7919 68.3487 25.8319 69.042 25.0639C69.746 24.2853 70.674 23.8959 71.826 23.8959C72.978 23.8959 73.9007 24.2853 74.594 25.0639C75.298 25.8319 75.65 26.7919 75.65 27.9439C75.65 29.0959 75.298 30.0613 74.594 30.8399ZM69.938 30.0719C70.4073 30.6479 71.0367 30.9359 71.826 30.9359C72.6153 30.9359 73.2393 30.6479 73.698 30.0719C74.1567 29.4853 74.386 28.7759 74.386 27.9439C74.386 27.1119 74.1567 26.4079 73.698 25.8319C73.2393 25.2559 72.6153 24.9679 71.826 24.9679C71.0367 24.9679 70.4073 25.2613 69.938 25.8479C69.4793 26.4239 69.25 27.1226 69.25 27.9439C69.25 28.7759 69.4793 29.4853 69.938 30.0719ZM81.4143 32.0079C80.3262 32.0079 79.4569 31.5546 78.8063 30.6479V34.7599H77.6062V24.0879H78.8063V25.2399C79.0943 24.8346 79.4676 24.5093 79.9262 24.2639C80.3849 24.0186 80.8809 23.8959 81.4143 23.8959C82.4382 23.8959 83.2649 24.2639 83.8942 24.9999C84.5342 25.7253 84.8542 26.7066 84.8542 27.9439C84.8542 29.1813 84.5342 30.1679 83.8942 30.9039C83.2649 31.6399 82.4382 32.0079 81.4143 32.0079ZM81.1103 30.9359C81.8676 30.9359 82.4703 30.6586 82.9183 30.1039C83.3662 29.5386 83.5902 28.8186 83.5902 27.9439C83.5902 27.0693 83.3662 26.3546 82.9183 25.7999C82.4703 25.2453 81.8676 24.9679 81.1103 24.9679C80.6516 24.9679 80.2036 25.0906 79.7663 25.3359C79.3396 25.5706 79.0196 25.8586 78.8063 26.1999V29.6879C79.0196 30.0399 79.3396 30.3386 79.7663 30.5839C80.2036 30.8186 80.6516 30.9359 81.1103 30.9359ZM92.9065 30.8399C92.2132 31.6186 91.2905 32.0079 90.1385 32.0079C88.9865 32.0079 88.0585 31.6186 87.3545 30.8399C86.6612 30.0613 86.3145 29.0959 86.3145 27.9439C86.3145 26.7919 86.6612 25.8319 87.3545 25.0639C88.0585 24.2853 88.9865 23.8959 90.1385 23.8959C91.2905 23.8959 92.2132 24.2853 92.9065 25.0639C93.6105 25.8319 93.9625 26.7919 93.9625 27.9439C93.9625 29.0959 93.6105 30.0613 92.9065 30.8399ZM88.2505 30.0719C88.7198 30.6479 89.3492 30.9359 90.1385 30.9359C90.9278 30.9359 91.5518 30.6479 92.0105 30.0719C92.4692 29.4853 92.6985 28.7759 92.6985 27.9439C92.6985 27.1119 92.4692 26.4079 92.0105 25.8319C91.5518 25.2559 90.9278 24.9679 90.1385 24.9679C89.3492 24.9679 88.7198 25.2613 88.2505 25.8479C87.7918 26.4239 87.5625 27.1226 87.5625 27.9439C87.5625 28.7759 87.7918 29.4853 88.2505 30.0719ZM104.38 31.8159H100.044V24.0879H104.3C104.972 24.0879 105.5 24.2693 105.884 24.6319C106.278 24.9946 106.476 25.4746 106.476 26.0719C106.476 26.5093 106.353 26.8879 106.108 27.2079C105.873 27.5173 105.58 27.7253 105.228 27.8319C105.622 27.9279 105.953 28.1573 106.22 28.5199C106.497 28.8826 106.636 29.2826 106.636 29.7199C106.636 30.3493 106.433 30.8559 106.028 31.2399C105.633 31.6239 105.084 31.8159 104.38 31.8159ZM104.14 30.7599C104.524 30.7599 104.828 30.6533 105.052 30.4399C105.276 30.2266 105.388 29.9386 105.388 29.5759C105.388 29.2453 105.276 28.9626 105.052 28.7279C104.828 28.4933 104.524 28.3759 104.14 28.3759H101.244V30.7599H104.14ZM104.092 27.3199C104.454 27.3199 104.737 27.2239 104.94 27.0319C105.142 26.8293 105.244 26.5679 105.244 26.2479C105.244 25.9066 105.142 25.6399 104.94 25.4479C104.737 25.2453 104.454 25.1439 104.092 25.1439H101.244V27.3199H104.092ZM118.132 32.0239C116.585 32.0239 115.284 31.5119 114.228 30.4879C113.172 29.4533 112.644 28.1199 112.644 26.4879C112.644 24.8559 113.172 23.5279 114.228 22.5039C115.284 21.4799 116.585 20.9679 118.132 20.9679C119.817 20.9679 121.199 21.6346 122.276 22.9679L121.22 23.6239C120.879 23.1759 120.431 22.8186 119.876 22.5519C119.332 22.2853 118.751 22.1519 118.132 22.1519C116.959 22.1519 115.977 22.5626 115.188 23.3839C114.409 24.1946 114.02 25.2293 114.02 26.4879C114.02 27.7466 114.409 28.7866 115.188 29.6079C115.977 30.4293 116.959 30.8399 118.132 30.8399C118.719 30.8399 119.263 30.7279 119.764 30.5039C120.276 30.2693 120.687 29.9973 120.996 29.6879V27.5119H117.332V26.3279H122.324V30.1839C121.225 31.4106 119.828 32.0239 118.132 32.0239ZM130.578 30.8399C129.885 31.6186 128.962 32.0079 127.81 32.0079C126.658 32.0079 125.73 31.6186 125.026 30.8399C124.333 30.0613 123.986 29.0959 123.986 27.9439C123.986 26.7919 124.333 25.8319 125.026 25.0639C125.73 24.2853 126.658 23.8959 127.81 23.8959C128.962 23.8959 129.885 24.2853 130.578 25.0639C131.282 25.8319 131.634 26.7919 131.634 27.9439C131.634 29.0959 131.282 30.0613 130.578 30.8399ZM125.922 30.0719C126.392 30.6479 127.021 30.9359 127.81 30.9359C128.6 30.9359 129.224 30.6479 129.682 30.0719C130.141 29.4853 130.37 28.7759 130.37 27.9439C130.37 27.1119 130.141 26.4079 129.682 25.8319C129.224 25.2559 128.6 24.9679 127.81 24.9679C127.021 24.9679 126.392 25.2613 125.922 25.8479C125.464 26.4239 125.234 27.1226 125.234 27.9439C125.234 28.7759 125.464 29.4853 125.922 30.0719ZM139.735 30.8399C139.041 31.6186 138.119 32.0079 136.967 32.0079C135.815 32.0079 134.887 31.6186 134.183 30.8399C133.489 30.0613 133.143 29.0959 133.143 27.9439C133.143 26.7919 133.489 25.8319 134.183 25.0639C134.887 24.2853 135.815 23.8959 136.967 23.8959C138.119 23.8959 139.041 24.2853 139.735 25.0639C140.439 25.8319 140.791 26.7919 140.791 27.9439C140.791 29.0959 140.439 30.0613 139.735 30.8399ZM135.079 30.0719C135.548 30.6479 136.177 30.9359 136.967 30.9359C137.756 30.9359 138.38 30.6479 138.839 30.0719C139.297 29.4853 139.527 28.7759 139.527 27.9439C139.527 27.1119 139.297 26.4079 138.839 25.8319C138.38 25.2559 137.756 24.9679 136.967 24.9679C136.177 24.9679 135.548 25.2613 135.079 25.8479C134.62 26.4239 134.391 27.1226 134.391 27.9439C134.391 28.7759 134.62 29.4853 135.079 30.0719ZM145.851 34.9519C145.168 34.9519 144.587 34.8666 144.107 34.6959C143.627 34.5359 143.168 34.2373 142.731 33.7999L143.339 32.9039C143.926 33.6079 144.763 33.9599 145.851 33.9599C146.566 33.9599 147.158 33.7679 147.627 33.3839C148.096 33.0106 148.331 32.4293 148.331 31.6399V30.5359C148.043 30.9413 147.67 31.2719 147.211 31.5279C146.752 31.7839 146.262 31.9119 145.739 31.9119C144.715 31.9119 143.883 31.5546 143.243 30.8399C142.614 30.1146 142.299 29.1386 142.299 27.9119C142.299 26.6853 142.614 25.7093 143.243 24.9839C143.883 24.2586 144.715 23.8959 145.739 23.8959C146.795 23.8959 147.659 24.3493 148.331 25.2559V24.0879H149.531V31.5919C149.531 32.7759 149.184 33.6292 148.491 34.1519C147.798 34.6853 146.918 34.9519 145.851 34.9519ZM146.027 30.8559C146.486 30.8559 146.928 30.7333 147.355 30.4879C147.792 30.2426 148.118 29.9439 148.331 29.5919V26.2159C148.118 25.8639 147.798 25.5706 147.371 25.3359C146.944 25.0906 146.496 24.9679 146.027 24.9679C145.259 24.9679 144.651 25.2399 144.203 25.7839C143.766 26.3279 143.547 27.0373 143.547 27.9119C143.547 28.7759 143.771 29.4853 144.219 30.0399C144.667 30.5839 145.27 30.8559 146.027 30.8559ZM153.134 31.8159H151.934V21.1439H153.134V31.8159ZM159.016 32.0079C157.864 32.0079 156.92 31.6346 156.184 30.8879C155.448 30.1306 155.08 29.1493 155.08 27.9439C155.08 26.8133 155.443 25.8586 156.168 25.0799C156.893 24.2906 157.8 23.8959 158.888 23.8959C160.029 23.8959 160.931 24.2906 161.592 25.0799C162.264 25.8586 162.6 26.8453 162.6 28.0399V28.3439H156.344C156.397 29.1013 156.675 29.7359 157.176 30.2479C157.677 30.7599 158.328 31.0159 159.128 31.0159C160.088 31.0159 160.883 30.6906 161.512 30.0399L162.088 30.8239C161.299 31.6133 160.275 32.0079 159.016 32.0079ZM161.416 27.4639C161.405 26.8026 161.181 26.2106 160.744 25.6879C160.307 25.1546 159.683 24.8879 158.872 24.8879C158.104 24.8879 157.496 25.1493 157.048 25.6719C156.611 26.1946 156.376 26.7919 156.344 27.4639H161.416ZM170.045 31.8159H168.717V21.1439H173.005C174.039 21.1439 174.855 21.4533 175.453 22.0719C176.05 22.6906 176.349 23.4533 176.349 24.3599C176.349 25.2666 176.045 26.0293 175.437 26.6479C174.839 27.2666 174.029 27.5759 173.005 27.5759H170.045V31.8159ZM172.845 26.3919C173.474 26.3919 173.986 26.2053 174.381 25.8319C174.775 25.4479 174.973 24.9573 174.973 24.3599C174.973 23.7626 174.775 23.2773 174.381 22.9039C173.986 22.5199 173.474 22.3279 172.845 22.3279H170.045V26.3919H172.845ZM179.259 31.8159H178.059V21.1439H179.259V31.8159ZM187.685 31.8159H186.485V30.9359C185.834 31.6506 184.981 32.0079 183.925 32.0079C183.21 32.0079 182.581 31.7786 182.037 31.3199C181.493 30.8613 181.221 30.2373 181.221 29.4479C181.221 28.6373 181.488 28.0133 182.021 27.5759C182.565 27.1279 183.2 26.9039 183.925 26.9039C185.024 26.9039 185.877 27.2559 186.485 27.9599V26.5679C186.485 26.0559 186.304 25.6559 185.941 25.3679C185.578 25.0799 185.109 24.9359 184.533 24.9359C183.626 24.9359 182.837 25.2933 182.165 26.0079L181.605 25.1759C182.426 24.3226 183.456 23.8959 184.693 23.8959C185.578 23.8959 186.298 24.1093 186.853 24.5359C187.408 24.9626 187.685 25.6186 187.685 26.5039V31.8159ZM184.357 31.1439C185.317 31.1439 186.026 30.8239 186.485 30.1839V28.7279C186.026 28.0879 185.317 27.7679 184.357 27.7679C183.802 27.7679 183.344 27.9279 182.981 28.2479C182.629 28.5573 182.453 28.9626 182.453 29.4639C182.453 29.9546 182.629 30.3599 182.981 30.6799C183.344 30.9893 183.802 31.1439 184.357 31.1439ZM189.659 34.8399L189.851 33.7519C190.043 33.8372 190.261 33.8799 190.507 33.8799C190.784 33.8799 191.013 33.8213 191.195 33.7039C191.376 33.5866 191.531 33.3733 191.659 33.0639L192.171 31.8959L188.939 24.0879H190.235L192.811 30.4239L195.371 24.0879H196.683L192.811 33.3839C192.384 34.4079 191.627 34.9306 190.539 34.9519C190.219 34.9519 189.925 34.9146 189.659 34.8399ZM16.25 36.0264V17.6045C16.2501 17.5645 16.262 17.5255 16.2843 17.4923C16.3065 17.4591 16.338 17.4331 16.3749 17.4178C16.4118 17.4024 16.4524 17.3983 16.4917 17.4059C16.5309 17.4135 16.567 17.4325 16.5955 17.4606L26.1875 26.8159L16.5955 36.1703C16.567 36.1984 16.5309 36.2174 16.4917 36.225C16.4524 36.2326 16.4118 36.2285 16.3749 36.2131C16.338 36.1978 16.3065 36.1718 16.2843 36.1386C16.262 36.1054 16.2501 36.0664 16.25 36.0264ZM18.1822 16.3459L30.2094 22.9722L27.3683 25.6876L17.9403 16.6726C17.7706 16.5095 17.9675 16.2292 18.1747 16.3417L18.1822 16.3459ZM18.1756 37.2901C17.9675 37.4026 17.7706 37.1223 17.9412 36.9592L27.3683 27.9433L30.2094 30.6597L18.1831 37.2859L18.1756 37.2901ZM31.7061 23.7944L35.0647 25.644C35.9783 26.1489 35.9783 27.4829 35.0647 27.9878L31.7061 29.8361L28.5481 26.8159L31.7061 23.7944Z" fill="white" />
</svg>
  