<svg width="211" height="53" viewBox="0 0 211 53" fill="none" xmlns="http://www.w3.org/2000/svg">
  <path fill-rule="evenodd" clip-rule="evenodd" d="M0 5.81592C0 3.05449 2.23858 0.815918 5 0.815918H206C208.761 0.815918 211 3.05449 211 5.81592V47.8159C211 50.5773 208.761 52.8159 206 52.8159H5C2.23857 52.8159 0 50.5773 0 47.8159V5.81592ZM38.5172 27.5555C38.5078 25.957 39.232 24.7523 40.6945 23.8641C39.8766 22.6922 38.6391 22.0477 37.0078 21.9234C36.0269 21.846 34.9873 22.23 34.2007 22.5205C33.7488 22.6874 33.3805 22.8234 33.1547 22.8234C32.8754 22.8234 32.4426 22.667 31.9468 22.4877L31.9468 22.4877C31.2816 22.2472 30.503 21.9656 29.8289 21.9656C27.4008 22.0031 24.8203 23.9016 24.8203 27.7641C24.8203 28.9055 25.0289 30.0844 25.4461 31.2984C26.0039 32.8969 28.0148 36.8133 30.1125 36.75C30.6161 36.7382 31.0521 36.5731 31.5145 36.3981C32.0592 36.1919 32.6405 35.9719 33.4125 35.9719C34.1266 35.9719 34.6631 36.1787 35.183 36.379C35.6716 36.5674 36.1455 36.75 36.7383 36.75C38.8547 36.7195 40.6734 33.1594 41.2031 31.5563C38.4425 30.2546 38.5111 27.7777 38.5169 27.5677L38.5172 27.5555ZM36.0539 20.407C37.2333 19.0067 37.1359 17.731 37.1 17.2605L37.0992 17.25C36.0492 17.3109 34.8352 17.9648 34.1437 18.7687C33.382 19.6313 32.9344 20.6977 33.0305 21.9C34.1648 21.9867 35.2008 21.4031 36.0539 20.407ZM57.4856 30.656C58.5416 31.68 59.8482 32.192 61.4056 32.192C63.0802 32.192 64.4349 31.488 65.4696 30.08L64.3336 29.456C64.0242 29.9253 63.6082 30.304 63.0856 30.592C62.5629 30.8693 62.0029 31.008 61.4056 31.008C60.2322 31.008 59.2509 30.6027 58.4616 29.792C57.6829 28.9707 57.2936 27.9307 57.2936 26.672C57.2936 25.4133 57.6829 24.3787 58.4616 23.568C59.2509 22.7467 60.2322 22.336 61.4056 22.336C62.0029 22.336 62.5629 22.48 63.0856 22.768C63.6082 23.056 64.0242 23.4293 64.3336 23.888L65.4536 23.264C64.4616 21.856 63.1122 21.152 61.4056 21.152C59.8482 21.152 58.5416 21.6693 57.4856 22.704C56.4402 23.728 55.9176 25.0507 55.9176 26.672C55.9176 28.2933 56.4402 29.6213 57.4856 30.656ZM72.3781 32H73.9141L70.4741 27.776L73.8981 24.272H72.3781L68.3141 28.384V24.272H67.1141V32H68.3141V29.792L69.5941 28.528L72.3781 32ZM78.6619 32.192C79.8139 32.192 80.7366 31.8027 81.4299 31.024C82.1339 30.2453 82.4859 29.28 82.4859 28.128C82.4859 26.976 82.1339 26.016 81.4299 25.248C80.7366 24.4693 79.8139 24.08 78.6619 24.08C77.5099 24.08 76.5819 24.4693 75.8779 25.248C75.1846 26.016 74.8379 26.976 74.8379 28.128C74.8379 29.28 75.1846 30.2453 75.8779 31.024C76.5819 31.8027 77.5099 32.192 78.6619 32.192ZM78.6619 31.12C77.8726 31.12 77.2433 30.832 76.7739 30.256C76.3153 29.6693 76.0859 28.96 76.0859 28.128C76.0859 27.3067 76.3153 26.608 76.7739 26.032C77.2433 25.4453 77.8726 25.152 78.6619 25.152C79.4513 25.152 80.0753 25.44 80.5339 26.016C80.9926 26.592 81.2219 27.296 81.2219 28.128C81.2219 28.96 80.9926 29.6693 80.5339 30.256C80.0753 30.832 79.4513 31.12 78.6619 31.12ZM85.6422 30.832C86.2929 31.7387 87.1622 32.192 88.2502 32.192C89.2742 32.192 90.1009 31.824 90.7302 31.088C91.3702 30.352 91.6902 29.3653 91.6902 28.128C91.6902 26.8907 91.3702 25.9093 90.7302 25.184C90.1009 24.448 89.2742 24.08 88.2502 24.08C87.7169 24.08 87.2209 24.2027 86.7622 24.448C86.3035 24.6933 85.9302 25.0187 85.6422 25.424V24.272H84.4422V34.944H85.6422V30.832ZM89.7542 30.288C89.3062 30.8427 88.7035 31.12 87.9462 31.12C87.4875 31.12 87.0395 31.0027 86.6022 30.768C86.1755 30.5227 85.8555 30.224 85.6422 29.872V26.384C85.8555 26.0427 86.1755 25.7547 86.6022 25.52C87.0395 25.2747 87.4875 25.152 87.9462 25.152C88.7035 25.152 89.3062 25.4293 89.7542 25.984C90.2022 26.5387 90.4262 27.2533 90.4262 28.128C90.4262 29.0027 90.2022 29.7227 89.7542 30.288ZM96.9744 32.192C98.1264 32.192 99.0491 31.8027 99.7424 31.024C100.446 30.2453 100.798 29.28 100.798 28.128C100.798 26.976 100.446 26.016 99.7424 25.248C99.0491 24.4693 98.1264 24.08 96.9744 24.08C95.8224 24.08 94.8944 24.4693 94.1904 25.248C93.4971 26.016 93.1504 26.976 93.1504 28.128C93.1504 29.28 93.4971 30.2453 94.1904 31.024C94.8944 31.8027 95.8224 32.192 96.9744 32.192ZM96.9744 31.12C96.1851 31.12 95.5558 30.832 95.0864 30.256C94.6278 29.6693 94.3984 28.96 94.3984 28.128C94.3984 27.3067 94.6278 26.608 95.0864 26.032C95.5558 25.4453 96.1851 25.152 96.9744 25.152C97.7638 25.152 98.3878 25.44 98.8464 26.016C99.3051 26.592 99.5344 27.296 99.5344 28.128C99.5344 28.96 99.3051 29.6693 98.8464 30.256C98.3878 30.832 97.7638 31.12 96.9744 31.12ZM106.88 32H111.216C111.92 32 112.469 31.808 112.864 31.424C113.269 31.04 113.472 30.5333 113.472 29.904C113.472 29.4667 113.333 29.0667 113.056 28.704C112.789 28.3413 112.458 28.112 112.064 28.016C112.416 27.9093 112.709 27.7013 112.944 27.392C113.189 27.072 113.312 26.6933 113.312 26.256C113.312 25.6587 113.114 25.1787 112.72 24.816C112.336 24.4533 111.808 24.272 111.136 24.272H106.88V32ZM111.888 30.624C111.664 30.8373 111.36 30.944 110.976 30.944H108.08V28.56H110.976C111.36 28.56 111.664 28.6773 111.888 28.912C112.112 29.1467 112.224 29.4293 112.224 29.76C112.224 30.1227 112.112 30.4107 111.888 30.624ZM111.776 27.216C111.573 27.408 111.29 27.504 110.928 27.504H108.08V25.328H110.928C111.29 25.328 111.573 25.4293 111.776 25.632C111.978 25.824 112.08 26.0907 112.08 26.432C112.08 26.752 111.978 27.0133 111.776 27.216ZM127.528 32H129.048L124.744 21.328H123.096L118.808 32H120.328L121.272 29.632H126.584L127.528 32ZM123.928 22.704L126.184 28.448H121.656L123.928 22.704ZM131.595 30.832C132.246 31.7387 133.115 32.192 134.203 32.192C135.227 32.192 136.054 31.824 136.683 31.088C137.323 30.352 137.643 29.3653 137.643 28.128C137.643 26.8907 137.323 25.9093 136.683 25.184C136.054 24.448 135.227 24.08 134.203 24.08C133.67 24.08 133.174 24.2027 132.715 24.448C132.257 24.6933 131.883 25.0187 131.595 25.424V24.272H130.395V34.944H131.595V30.832ZM135.707 30.288C135.259 30.8427 134.657 31.12 133.899 31.12C133.441 31.12 132.993 31.0027 132.555 30.768C132.129 30.5227 131.809 30.224 131.595 29.872V26.384C131.809 26.0427 132.129 25.7547 132.555 25.52C132.993 25.2747 133.441 25.152 133.899 25.152C134.657 25.152 135.259 25.4293 135.707 25.984C136.155 26.5387 136.379 27.2533 136.379 28.128C136.379 29.0027 136.155 29.7227 135.707 30.288ZM140.752 30.832C141.402 31.7387 142.272 32.192 143.36 32.192C144.384 32.192 145.21 31.824 145.84 31.088C146.48 30.352 146.8 29.3653 146.8 28.128C146.8 26.8907 146.48 25.9093 145.84 25.184C145.21 24.448 144.384 24.08 143.36 24.08C142.826 24.08 142.33 24.2027 141.872 24.448C141.413 24.6933 141.04 25.0187 140.752 25.424V24.272H139.552V34.944H140.752V30.832ZM144.864 30.288C144.416 30.8427 143.813 31.12 143.056 31.12C142.597 31.12 142.149 31.0027 141.712 30.768C141.285 30.5227 140.965 30.224 140.752 29.872V26.384C140.965 26.0427 141.285 25.7547 141.712 25.52C142.149 25.2747 142.597 25.152 143.056 25.152C143.813 25.152 144.416 25.4293 144.864 25.984C145.312 26.5387 145.536 27.2533 145.536 28.128C145.536 29.0027 145.312 29.7227 144.864 30.288ZM152.241 30.496C153.243 31.6267 154.609 32.192 156.337 32.192C157.67 32.192 158.657 31.888 159.297 31.28C159.947 30.672 160.273 29.9307 160.273 29.056C160.273 28.4373 160.113 27.9093 159.793 27.472C159.483 27.0347 159.094 26.72 158.625 26.528C158.166 26.3253 157.659 26.1387 157.105 25.968C156.561 25.7867 156.054 25.6373 155.585 25.52C155.126 25.4027 154.737 25.2213 154.417 24.976C154.107 24.7307 153.953 24.4213 153.953 24.048C153.953 23.5467 154.155 23.1413 154.561 22.832C154.977 22.512 155.505 22.352 156.145 22.352C157.425 22.352 158.454 22.7787 159.233 23.632L160.033 22.656C159.094 21.664 157.83 21.168 156.241 21.168C155.185 21.168 154.31 21.4453 153.617 22C152.923 22.544 152.577 23.2533 152.577 24.128C152.577 24.64 152.694 25.0827 152.929 25.456C153.163 25.8293 153.462 26.1173 153.825 26.32C154.198 26.5227 154.609 26.6987 155.057 26.848C155.505 26.9867 155.953 27.1147 156.401 27.232C156.859 27.3493 157.27 27.4827 157.633 27.632C158.006 27.7707 158.31 27.968 158.545 28.224C158.779 28.48 158.897 28.7947 158.897 29.168C158.897 29.6587 158.694 30.0907 158.289 30.464C157.883 30.8267 157.249 31.008 156.385 31.008C155.051 31.008 153.931 30.5013 153.025 29.488L152.241 30.496ZM162.614 31.728C162.902 32.0373 163.329 32.192 163.894 32.192C164.502 32.192 164.982 32.0267 165.334 31.696L164.982 30.8C164.79 31.0133 164.518 31.12 164.166 31.12C163.91 31.12 163.713 31.0293 163.574 30.848C163.446 30.6667 163.382 30.4267 163.382 30.128V25.328H164.95V24.272H163.382V22.16H162.182V24.272H160.902V25.328H162.182V30.384C162.182 30.9707 162.326 31.4187 162.614 31.728ZM170.021 32.192C171.173 32.192 172.096 31.8027 172.789 31.024C173.493 30.2453 173.845 29.28 173.845 28.128C173.845 26.976 173.493 26.016 172.789 25.248C172.096 24.4693 171.173 24.08 170.021 24.08C168.869 24.08 167.941 24.4693 167.237 25.248C166.544 26.016 166.197 26.976 166.197 28.128C166.197 29.28 166.544 30.2453 167.237 31.024C167.941 31.8027 168.869 32.192 170.021 32.192ZM170.021 31.12C169.232 31.12 168.603 30.832 168.133 30.256C167.675 29.6693 167.445 28.96 167.445 28.128C167.445 27.3067 167.675 26.608 168.133 26.032C168.603 25.4453 169.232 25.152 170.021 25.152C170.811 25.152 171.435 25.44 171.893 26.016C172.352 26.592 172.581 27.296 172.581 28.128C172.581 28.96 172.352 29.6693 171.893 30.256C171.435 30.832 170.811 31.12 170.021 31.12ZM175.802 32H177.002V26.528C177.183 26.2187 177.487 25.936 177.914 25.68C178.34 25.424 178.735 25.296 179.098 25.296C179.268 25.296 179.428 25.312 179.578 25.344V24.112C178.575 24.112 177.716 24.5813 177.002 25.52V24.272H175.802V32ZM181.739 31.072C182.475 31.8187 183.419 32.192 184.571 32.192C185.829 32.192 186.853 31.7973 187.643 31.008L187.067 30.224C186.437 30.8747 185.643 31.2 184.683 31.2C183.883 31.2 183.232 30.944 182.731 30.432C182.229 29.92 181.952 29.2853 181.899 28.528H188.155V28.224C188.155 27.0293 187.819 26.0427 187.147 25.264C186.485 24.4747 185.584 24.08 184.443 24.08C183.355 24.08 182.448 24.4747 181.723 25.264C180.997 26.0427 180.635 26.9973 180.635 28.128C180.635 29.3333 181.003 30.3147 181.739 31.072ZM186.299 25.872C186.736 26.3947 186.96 26.9867 186.971 27.648H181.899C181.931 26.976 182.165 26.3787 182.603 25.856C183.051 25.3333 183.659 25.072 184.427 25.072C185.237 25.072 185.861 25.3387 186.299 25.872Z" fill="white" />
</svg>
  