<svg width="52" height="52" viewBox="0 0 52 52" fill="none" xmlns="http://www.w3.org/2000/svg">
  <path d="M49.0683 24.9215C46.9142 15.1827 43.6723 9.98473 38.8633 8.56488C37.8524 8.26837 36.8039 8.12023 35.7504 8.12512C34.358 8.12512 33.1453 8.46434 31.8626 8.82387C30.3168 9.25754 28.5608 9.75012 26.0004 9.75012C23.44 9.75012 21.683 9.25855 20.1342 8.82488C18.8504 8.46434 17.6388 8.12512 16.2504 8.12512C15.1611 8.12134 14.0765 8.269 13.0278 8.56387C8.24424 9.97762 5.0044 15.1736 2.81877 24.9154C0.468615 35.3987 1.62541 42.0175 6.06268 43.5532C6.67092 43.7676 7.31089 43.8781 7.9558 43.8802C10.9956 43.8802 13.4331 41.3482 15.0987 39.2754C16.9806 36.9293 19.1835 35.7389 26.0004 35.7389C32.0891 35.7389 34.6089 36.5646 36.7853 39.2754C38.1534 40.9796 39.4463 42.1719 40.7361 42.9225C42.4515 43.9198 44.1659 44.1412 45.8305 43.5694C48.4528 42.6746 49.956 40.3093 50.2992 36.5372C50.5603 33.6447 50.1581 29.8453 49.0683 24.9215ZM21.1254 24.3751H17.8754V27.6251C17.8754 28.0561 17.7042 28.4694 17.3995 28.7742C17.0947 29.0789 16.6814 29.2501 16.2504 29.2501C15.8194 29.2501 15.4061 29.0789 15.1014 28.7742C14.7966 28.4694 14.6254 28.0561 14.6254 27.6251V24.3751H11.3754C10.9444 24.3751 10.5311 24.2039 10.2264 23.8992C9.92162 23.5944 9.75041 23.1811 9.75041 22.7501C9.75041 22.3191 9.92162 21.9058 10.2264 21.6011C10.5311 21.2963 10.9444 21.1251 11.3754 21.1251H14.6254V17.8751C14.6254 17.4441 14.7966 17.0308 15.1014 16.7261C15.4061 16.4213 15.8194 16.2501 16.2504 16.2501C16.6814 16.2501 17.0947 16.4213 17.3995 16.7261C17.7042 17.0308 17.8754 17.4441 17.8754 17.8751V21.1251H21.1254C21.5564 21.1251 21.9697 21.2963 22.2745 21.6011C22.5792 21.9058 22.7504 22.3191 22.7504 22.7501C22.7504 23.1811 22.5792 23.5944 22.2745 23.8992C21.9697 24.2039 21.5564 24.3751 21.1254 24.3751ZM29.6567 24.7814C29.2549 24.7814 28.8622 24.6622 28.5282 24.439C28.1941 24.2158 27.9338 23.8986 27.78 23.5274C27.6263 23.1563 27.5861 22.7479 27.6644 22.3538C27.7428 21.9598 27.9363 21.5979 28.2204 21.3138C28.5044 21.0297 28.8664 20.8363 29.2604 20.7579C29.6544 20.6795 30.0628 20.7197 30.434 20.8735C30.8051 21.0272 31.1224 21.2876 31.3456 21.6216C31.5688 21.9557 31.6879 22.3484 31.6879 22.7501C31.6879 23.2888 31.4739 23.8055 31.093 24.1864C30.712 24.5674 30.1954 24.7814 29.6567 24.7814ZM34.1254 29.2501C33.7235 29.2501 33.3305 29.1309 32.9964 28.9074C32.6622 28.684 32.4019 28.3665 32.2483 27.995C32.0947 27.6236 32.0548 27.2149 32.1336 26.8207C32.2124 26.4266 32.4063 26.0646 32.6909 25.7808C32.9755 25.4969 33.3379 25.3038 33.7323 25.226C34.1266 25.1482 34.5352 25.1892 34.9063 25.3437C35.2773 25.4982 35.5942 25.7594 35.8168 26.0941C36.0394 26.4288 36.1577 26.822 36.1567 27.2239C36.1553 27.7618 35.9407 28.2771 35.5599 28.657C35.1791 29.0368 34.6633 29.2501 34.1254 29.2501ZM34.1254 20.3126C33.7237 20.3126 33.3309 20.1935 32.9969 19.9703C32.6629 19.7471 32.4025 19.4299 32.2488 19.0587C32.095 18.6875 32.0548 18.2791 32.1332 17.8851C32.2116 17.4911 32.405 17.1291 32.6891 16.8451C32.9732 16.561 33.3351 16.3675 33.7291 16.2891C34.1232 16.2108 34.5316 16.251 34.9027 16.4047C35.2739 16.5585 35.5911 16.8188 35.8143 17.1529C36.0375 17.4869 36.1567 17.8796 36.1567 18.2814C36.1567 18.8201 35.9427 19.3367 35.5617 19.7177C35.1808 20.0986 34.6641 20.3126 34.1254 20.3126ZM38.5942 24.7814C38.1924 24.7814 37.7997 24.6622 37.4657 24.439C37.1316 24.2158 36.8713 23.8986 36.7175 23.5274C36.5638 23.1563 36.5236 22.7479 36.6019 22.3538C36.6803 21.9598 36.8738 21.5979 37.1579 21.3138C37.4419 21.0297 37.8039 20.8363 38.1979 20.7579C38.5919 20.6795 39.0003 20.7197 39.3715 20.8735C39.7426 21.0272 40.0599 21.2876 40.2831 21.6216C40.5063 21.9557 40.6254 22.3484 40.6254 22.7501C40.6254 23.2888 40.4114 23.8055 40.0305 24.1864C39.6495 24.5674 39.1329 24.7814 38.5942 24.7814Z" fill="white" />
</svg>
  